<?xml version="1.0" standalone="no"?>
<!DOCTYPE svg PUBLIC "-//W3C//DTD SVG 20010904//EN"
 "http://www.w3.org/TR/2001/REC-SVG-20010904/DTD/svg10.dtd">
<svg version="1.0" xmlns="http://www.w3.org/2000/svg"
 width="246.000000pt" height="246.000000pt" viewBox="0 0 246.000000 246.000000"
 preserveAspectRatio="xMidYMid meet">

<g transform="translate(0.000000,246.000000) scale(0.100000,-0.100000)"
fill="#5051F9" stroke="none">
<path d="M0 1230 l0 -1230 1230 0 1230 0 0 1230 0 1230 -1230 0 -1230 0 0
-1230z m1260 874 c0 -8 -22 -150 -50 -314 -27 -164 -50 -304 -50 -310 0 -7 21
7 48 31 26 23 76 56 112 73 57 27 78 31 170 34 93 4 111 1 153 -18 105 -49
164 -162 174 -334 7 -100 2 -135 -73 -585 -30 -179 -54 -326 -54 -328 0 -2
-81 -3 -180 -3 -137 0 -180 3 -180 13 0 6 22 145 49 307 70 418 74 449 73 508
-2 104 -65 160 -166 148 -63 -8 -104 -32 -141 -81 -26 -33 -33 -67 -100 -463
l-71 -427 -183 -3 -183 -2 6 27 c7 31 94 556 180 1088 31 187 63 378 71 425
16 90 35 210 35 223 0 4 81 7 180 7 156 0 180 -2 180 -16z"/>
</g>
</svg>
