<svg fill="none" height="50" viewBox="0 0 24 24" width="50" xmlns="http://www.w3.org/2000/svg"><path d="m20.33 9.78h-.03c-.2384-.00141-.4711-.0734-.6686-.20687-.1975-.13348-.3511-.32247-.4414-.54313 0-.00265-.0011-.0052-.0029-.00707-.0019-.00188-.0044-.00293-.0071-.00293-.089-.21995-.1117-.46109-.0656-.69381.0462-.23272.1594-.44689.3256-.61619l.03-.03c.3122-.31337.4874-.73768.4874-1.18s-.1752-.86663-.4874-1.18l-.79-.78c-.3134-.31217-.7377-.48744-1.18-.48744s-.8666.17527-1.18.48744l-.01.02c-.1732.16681-.3913.27935-.6276.32377s-.4805.01878-.7024-.07377c-.2237-.08699-.4159-.23949-.5515-.43754-.1357-.19806-.2083-.43243-.2085-.67246v-.03c.0008-.21869-.0415-.43539-.1246-.6377-.083-.20232-.2051-.38629-.3592-.54139-.1542-.1551-.3374-.27829-.5393-.36253-.2018-.08423-.4182-.12786-.6369-.12838h-1.12c-.2187.00052-.4351.04415-.6369.12838-.2019.08424-.3851.20743-.5393.36253-.1541.1551-.27622.33907-.35924.54139-.08302.20231-.12535.41901-.12456.6377v.03c-.00048.23862-.0721.47168-.20569.6694s-.3231.35112-.54431.4406c-.15094.06748-.31467.10159-.48.1-.15773.00039-.31399-.03033-.45984-.09038-.14585-.06006-.27843-.14828-.39016-.25962l-.02-.02c-.31337-.31217-.73768-.48744-1.18-.48744s-.86663.17527-1.18.48744l-.79.78c-.31217.31337-.48744.73768-.48744 1.18s.17527.86663.48744 1.18l.03.03c.1676.17055.28125.38669.32675.62143.04551.23475.02085.4777-.07089.69852-.09174.22081-.2465.40971-.44495.54311-.19845.13339-.4318.20537-.67091.20694h-.03c-.44267.00079-.86698.17699-1.17999.49-.31302.313-.48922.7373-.49001 1.18v1.11c.00079.4427.17699.867.49001 1.18.31301.313.73732.4892 1.17999.49h.03c.23918-.002.47332.0687.67151.2026.19818.1339.35108.3248.43849.5474.09064.2223.11527.4659.07092.7018-.04434.2359-.15576.454-.32092.6282l-.02.01c-.3123.3153-.48749.7412-.48749 1.185s.17519.8697.48749 1.185l.78.78c.31337.3122.73768.4874 1.18.4874s.86663-.1752 1.18-.4874l.02-.02c.16699-.1699.38127-.2855.61492-.3319.23366-.0464.47587-.0213.69508.0719.22543.0886.41921.2426.55643.4421.13721.1996.21159.4357.21357.6779v.03c-.00053.2181.04205.4342.12529.6359.08323.2016.20551.3848.35971.5391.1543.1542.3375.2765.5391.3597.2017.0833.4178.1258.6359.1253h1.12c.2181.0005.4342-.042.6359-.1253.2016-.0832.3848-.2055.5391-.3597.1542-.1543.2765-.3375.3597-.5391.0832-.2017.1258-.4178.1253-.6359v-.03c.002-.2422.0764-.4783.2136-.6779.1372-.1995.331-.3535.5564-.4421.2192-.0932.4614-.1183.6951-.0719.2336.0464.4479.162.6149.3319l.02.02c.3134.3122.7377.4874 1.18.4874s.8666-.1752 1.18-.4874l.78-.78c.3123-.3153.4875-.7412.4875-1.185s-.1752-.8697-.4875-1.185l-.02-.01c-.1652-.1742-.2766-.3923-.3209-.6282-.0444-.2359-.0197-.4795.0709-.7018.0874-.2226.2403-.4135.4385-.5474s.4323-.2046.6715-.2026h.03c.4427-.0008.867-.177 1.18-.49s.4892-.7373.49-1.18v-1.11c-.0008-.4427-.177-.867-.49-1.18-.313-.31301-.7373-.48921-1.18-.49zm-8.33 5.72c-.6922 0-1.3689-.2053-1.9445-.5899-.57557-.3845-1.02417-.9312-1.28908-1.5707s-.33422-1.3433-.19917-2.0222.46839-1.3026.95788-1.79207c.48947-.48949 1.11317-.82283 1.79207-.95788s1.3827-.06574 2.0222.19917 1.1862.71351 1.5707 1.28908c.3846.5756.5899 1.2523.5899 1.9445 0 .9283-.3687 1.8185-1.0251 2.4749s-1.5466 1.0251-2.4749 1.0251z" fill="gray"/></svg>